<svg xmlns="http://www.w3.org/2000/svg" version="1.1" xmlns:xlink="http://www.w3.org/1999/xlink" width="1500" height="1500" viewBox="0 0 1500 1500"><rect width="1500" height="1500" x="0" y="0" id="background" stroke="transparent" fill="#ffffff"></rect><svg xml:space="preserve" width="1000" height="1000" data-version="2" data-id="lg_UK2DQ8hWIPmWdXMj1j" viewBox="0 0 582 122" x="250" y="250"><rect width="100%" height="100%" fill="transparent"></rect><path fill="#585858" d="M175.795 60.9h-3.18V81h3.9v1.14h-19.5V81h3.9V41.28h-3.9v-1.14h18.12q7.8 0 11.07.81 3.27.81 4.59 1.95 2.88 2.34 2.88 7.44 0 5.1-2.52 7.29-2.52 2.19-7.68 2.61v.18q4.86.66 6.78 2.88 1.92 2.22 1.92 7.44v3.18q0 3.12.33 4.2t1.41 1.08q1.08 0 1.71-.99.63-.99 1.17-4.17l1.02.12q-.66 5.1-2.31 6.84-1.65 1.74-6.57 1.74t-6.99-2.31q-2.07-2.31-2.07-8.67v-4.38q0-3.36-.87-4.92t-3.21-1.56m-1.2-19.62h-1.98v18.48h1.92q3.42 0 5.07-2.1 1.65-2.1 1.65-6.84v-1.74q0-4.74-1.59-6.27-1.59-1.53-5.07-1.53m25.74.18v-1.32h31.2l.6 11.88h-1.08q-2.52-6.06-5.28-8.31-2.76-2.25-8.1-2.25h-2.1V60h2.04q2.82 0 4.74-2.13 1.92-2.13 2.7-5.73h.9V69.9h-1.02q-1.08-4.5-2.91-6.42t-5.01-1.92h-1.44v19.26h2.28q5.52 0 9.39-3.3 3.87-3.3 5.31-8.46h1.2l-.48 13.08h-32.94v-1.32h3.54V41.46zm60.18-.78q-9.3 0-9.3 17.94v4.74q0 8.52 2.46 13.35t7.26 4.83q6.6 0 12.12-12.84h1.08l-.42 13.38h-.66q-.36-.66-.66-.93-.3-.27-.87-.27-.57 0-4.35.93t-7.68.93q-9.78 0-15.15-5.28-5.37-5.28-5.37-15.87t5.61-16.35q5.61-5.76 15.09-5.76 3.66 0 7.17.93t4.11.93q.6 0 .9-.27.3-.27.66-.93h.66l.48 13.02h-1.08q-2.7-6.06-5.55-9.27-2.85-3.21-6.51-3.21m33.06.42 8.16 18.78 8.52-18.78h-6.06v-.96h11.82v.96h-3.96l-9.06 20.04V81h3.66v1.14h-19.02V81h3.66V62.28l-10.2-21.18h-2.82v-.96h19.2v.96zm46.8-.42q-9.3 0-9.3 17.94v4.74q0 8.52 2.46 13.35t7.26 4.83q6.6 0 12.12-12.84h1.08l-.42 13.38h-.66q-.36-.66-.66-.93-.3-.27-.87-.27-.57 0-4.35.93t-7.68.93q-9.78 0-15.15-5.28-5.37-5.28-5.37-15.87t5.61-16.35q5.61-5.76 15.09-5.76 3.66 0 7.17.93t4.11.93q.6 0 .9-.27.3-.27.66-.93h.66l.48 13.02h-1.08q-2.7-6.06-5.55-9.27-2.85-3.21-6.51-3.21m18.66.78v-1.32h21.6v1.32h-6.36v39.36h2.16q5.1 0 8.13-3.12 3.03-3.12 6.15-9.6h1.26l-1.14 14.04h-31.8v-1.32h3.54V41.46zm35.76 0v-1.32h31.2l.6 11.88h-1.08q-2.52-6.06-5.28-8.31-2.76-2.25-8.1-2.25h-2.1V60h2.04q2.82 0 4.74-2.13 1.92-2.13 2.7-5.73h.9V69.9h-1.02q-1.08-4.5-2.91-6.42t-5.01-1.92h-1.44v19.26h2.28q5.52 0 9.39-3.3 3.87-3.3 5.31-8.46h1.2l-.48 13.08h-32.94v-1.32h3.54V41.46zm74.88-.18h-3.3v40.86h-8.4l-20.58-38.82V81h3.3v1.14h-8.22V81h3.3V41.28h-3.3v-1.14h16.56l15.72 30.12V41.28h-3.3v-1.14h8.22zm31.56 22.32v-4.44q0-10.98-1.08-13.86-1.2-3.3-3.42-4.08-1.26-.48-3.06-.48t-3.09.48q-1.29.48-2.13 1.68-.84 1.2-1.35 2.52-.51 1.32-.81 3.72-.36 3.48-.36 10.26v4.32q0 7.32.57 10.41t1.41 4.41q1.86 2.94 5.76 2.94 4.74 0 6.15-3.99 1.41-3.99 1.41-13.89m-7.68 19.14q-10.02 0-14.97-5.43-4.95-5.43-4.95-15.72 0-10.29 5.31-16.2t15.03-5.91q9.72 0 14.67 5.61 4.95 5.61 4.95 15.93t-5.01 16.02q-5.01 5.7-15.03 5.7m38.16-41.46 9.78 28.74 4.98-17.28-3.6-11.46h-3.42v-1.14h18.6v1.14h-3.54l8.94 28.38 7.2-28.38h-6.06v-1.14h12v1.14h-3.96l-11.04 41.46h-5.34l-8.88-27.12-7.8 27.12h-5.22l-15.12-41.46h-2.82v-1.14h19.5v1.14zM41.763 65.847l5.504 3.373q1.404 0 1.404-1.157 0-.739-.665-2.056L35.841 43.14l-26.99.665q-1.81.074-1.81 1.884 0 .419 1.157 1.158l5.59 3.373-5.91 9.21q-2.475 3.94-2.475 6.49 0 2.314 1.65 5.171l18.346 32.001a27.089 27.089 0 0 1-.665-5.762q0-4.839 3.042-9.543zm7.068-18.667 15.145-23.444Q55.48 4.405 45.95 4.405q-5.75 0-7.733 3.201L23.91 30.484z"></path><path fill="#585858" d="M36.493 110.666H65.7v-30.34H37.565q-5.172 7.389-6.502 10.036a18.47 18.47 0 0 0-2.13 8.545q0 11.759 7.56 11.759m60.125-69.088 13.002-21.88q.653-1.146.653-2.377 0-1.477-.985-1.477.16 0-1.318.492l-5.91 2.709L96.618 8.27q-3.62-7.24-14.468-7.24H48.338q6.17 1.909 8.386 3.694Q61.907 8.85 67.337 20.19l6.748 14.16-5.024 2.376q-.739.333-.739 1.318 0 1.231 1.564 1.404zm13.002 64.57 18.913-34.379q-4.186 4.765-9.124 6.415-3.965 1.318-11.279 1.318H87.075v-4.36q0-2.548-1.231-2.548-.924 0-1.318.653L71.204 96.358l13.815 21.228q1.564 2.389 2.709 1.884 1.157-.308 1.157-1.232v-7.24h11.685q6.403 0 9.038-4.85"></path><path fill="#585858" d="M101.395 75.143h12.584q4.507 0 9.37-3.94 5.172-4.125 5.184-8.742 0-2.118-1.404-4.187L112.17 35.41 86.423 50.382z"></path></svg></svg>